<svg xmlns="http://www.w3.org/2000/svg" xmlns:xlink="http://www.w3.org/1999/xlink" width="80" zoomAndPan="magnify" viewBox="0 0 60 60" height="80" preserveAspectRatio="xMidYMid meet" version="1.0"><path stroke-linecap="round" transform="matrix(2.3125, 0, 0, 2.3125, 2.4375, 2.437502)" fill="none" stroke-linejoin="round" d="M 16.000002 1.999999 L 13.699326 4.300675 C 13.564191 4.439189 13.442569 4.589527 13.33615 4.751689 C 13.228042 4.913851 13.138515 5.086148 13.06588 5.265202 C 12.991556 5.445946 12.935812 5.631757 12.89865 5.822635 C 12.861488 6.013513 12.842907 6.206081 12.842907 6.400338 C 12.842907 6.594595 12.861488 6.787162 12.89865 6.97804 C 12.935812 7.168919 12.991556 7.35473 13.06588 7.533784 C 13.138515 7.714527 13.228042 7.885135 13.33615 8.047297 C 13.442569 8.211149 13.564191 8.361487 13.699326 8.5 L 15.500002 10.300676 C 15.638515 10.435811 15.788853 10.557433 15.952705 10.663852 C 16.114867 10.77196 16.285475 10.861487 16.466218 10.934122 C 16.645272 11.008446 16.831083 11.06419 17.021961 11.101352 C 17.21284 11.138514 17.405407 11.157095 17.599664 11.157095 C 17.793921 11.157095 17.986489 11.138514 18.177367 11.101352 C 18.368245 11.06419 18.554056 11.008446 18.734799 10.934122 C 18.913853 10.861487 19.086151 10.77196 19.248313 10.663852 C 19.410475 10.557433 19.560813 10.435811 19.699327 10.300676 L 22.000002 8 " stroke="#000000" stroke-width="2" stroke-opacity="1" stroke-miterlimit="4"/><path stroke-linecap="round" transform="matrix(2.3125, 0, 0, 2.3125, 2.4375, 2.437502)" fill="none" stroke-linejoin="round" d="M 15.000002 15.000001 L 3.300676 3.300675 C 3.099663 3.494932 2.922298 3.709459 2.765203 3.939189 C 2.608108 4.170608 2.476352 4.41554 2.366554 4.672297 C 2.258446 4.930743 2.177365 5.195946 2.121622 5.469594 C 2.067568 5.743243 2.038852 6.02027 2.038852 6.300676 C 2.038852 6.579392 2.067568 6.856419 2.121622 7.130068 C 2.177365 7.403716 2.258446 7.668919 2.366554 7.927365 C 2.476352 8.184122 2.608108 8.429054 2.765203 8.660473 C 2.922298 8.891892 3.099663 9.10473 3.300676 9.300676 L 10.599663 16.599663 C 11.300677 17.300677 12.599664 17.300677 13.400339 16.599663 Z M 15.000002 15.000001 L 22.000002 22.000002 " stroke="#000000" stroke-width="2" stroke-opacity="1" stroke-miterlimit="4"/><path stroke-linecap="round" transform="matrix(2.3125, 0, 0, 2.3125, 2.4375, 2.437502)" fill="none" stroke-linejoin="round" d="M 2.099662 21.800677 L 8.500001 15.500001 " stroke="#000000" stroke-width="2" stroke-opacity="1" stroke-miterlimit="4"/><path stroke-linecap="round" transform="matrix(2.3125, 0, 0, 2.3125, 2.4375, 2.437502)" fill="none" stroke-linejoin="round" d="M 19.000002 5 L 12.000001 12.000001 " stroke="#000000" stroke-width="2" stroke-opacity="1" stroke-miterlimit="4"/></svg>